<?xml version="1.0" standalone="no"?>
<!DOCTYPE svg PUBLIC "-//W3C//DTD SVG 20010904//EN"
 "http://www.w3.org/TR/2001/REC-SVG-20010904/DTD/svg10.dtd">
<svg version="1.0" xmlns="http://www.w3.org/2000/svg"
 width="200.000000pt" height="200.000000pt" viewBox="0 0 200.000000 200.000000"
 preserveAspectRatio="xMidYMid meet">
<metadata>
Created by potrace 1.11, written by Peter Selinger 2001-2013
</metadata>
<g transform="translate(0.000000,200.000000) scale(0.100000,-0.100000)"
fill="#000000" stroke="none">
<path d="M0 1000 l0 -1000 709 0 c420 1 711 5 713 10 2 5 19 5 43 0 64 -15
152 -12 188 7 30 15 31 15 18 0 -12 -16 0 -17 157 -17 l170 0 1 90 2 90 -26
-10 c-14 -5 -25 -6 -25 -1 0 5 11 12 25 15 l25 6 0 225 c0 160 -3 225 -11 225
-8 0 -8 4 0 14 8 9 11 43 9 93 -2 63 -6 77 -18 75 -11 -2 -11 1 3 12 23 18 19
75 -8 98 -11 10 -15 17 -9 18 5 0 15 -5 22 -12 9 -9 12 3 12 56 0 42 -4 65
-10 61 -7 -4 -7 3 0 20 6 15 10 49 10 76 0 45 -2 49 -24 49 -29 0 -46 19 -19
21 10 1 24 1 31 0 7 -1 12 11 12 34 0 30 -3 35 -24 35 -13 0 -27 7 -30 16 -9
22 -8 24 9 24 8 0 15 -7 15 -15 0 -9 6 -12 15 -9 11 5 15 22 15 67 0 58 -1 59
-18 44 -20 -19 -52 -23 -52 -7 0 6 6 10 14 10 8 0 24 9 37 19 22 17 23 22 12
50 -6 17 -7 29 -2 25 5 -3 9 94 9 240 l0 246 -449 0 c-350 0 -450 -3 -454 -12
-4 -10 -6 -10 -6 0 -1 8 -25 12 -87 12 -76 0 -85 -2 -74 -15 7 -8 8 -15 2 -15
-5 0 -15 7 -22 15 -11 13 -75 15 -461 15 l-449 0 0 -1000z m1230 980 c0 -5 -4
-10 -10 -10 -5 0 -10 5 -10 10 0 6 5 10 10 10 6 0 10 -4 10 -10z m-60 -56 c0
-13 14 -39 31 -59 17 -19 27 -35 22 -35 -10 0 -83 95 -83 108 0 5 7 9 15 9 9
0 15 -10 15 -23z m705 6 c-3 -5 -11 -10 -16 -10 -6 0 -7 5 -4 10 3 6 11 10 16
10 6 0 7 -4 4 -10z m-818 -6 c-3 -3 -12 -4 -19 -1 -8 3 -5 6 6 6 11 1 17 -2
13 -5z m925 -6 c-9 -9 -15 -9 -24 0 -9 9 -7 12 12 12 19 0 21 -3 12 -12z
m-1017 -8 c-3 -5 -1 -10 4 -10 6 0 11 -4 11 -10 0 -17 -14 -11 -28 10 -10 17
-10 20 4 20 8 0 12 -4 9 -10z m405 -60 c0 -5 -4 -10 -10 -10 -5 0 -10 5 -10
10 0 6 5 10 10 10 6 0 10 -4 10 -10z m-377 -15 c4 -8 2 -17 -3 -20 -6 -4 -10
3 -10 14 0 25 6 27 13 6z m179 -29 c10 -7 15 -16 12 -19 -9 -8 -44 11 -44 23
0 13 12 12 32 -4z m78 10 c0 -2 -7 -6 -15 -10 -8 -3 -15 -1 -15 4 0 6 7 10 15
10 8 0 15 -2 15 -4z m417 -18 c-3 -8 -6 -5 -6 6 -1 11 2 17 5 13 3 -3 4 -12 1
-19z m-887 2 c0 -5 -7 -10 -15 -10 -8 0 -15 5 -15 10 0 6 7 10 15 10 8 0 15
-4 15 -10z m240 -32 c0 -6 -7 -7 -16 -4 -9 3 -23 6 -32 6 -14 0 -14 2 -3 9 16
10 51 3 51 -11z m-100 0 c0 -11 -12 -10 -30 2 -12 7 -10 9 8 7 12 0 22 -5 22
-9z m517 -6 c-10 -10 -14 -21 -11 -25 3 -3 -3 -5 -15 -4 -20 1 -19 3 7 24 33
27 41 29 19 5z m-237 -7 c7 -9 8 -15 2 -15 -5 0 -12 7 -16 15 -3 8 -4 15 -2
15 2 0 9 -7 16 -15z m-258 -47 c-8 -8 -9 -4 -5 13 4 13 8 18 11 10 2 -7 -1
-18 -6 -23z m292 6 c4 -10 1 -14 -6 -12 -15 5 -23 28 -10 28 5 0 13 -7 16 -16z
m486 -24 c0 -5 -4 -10 -10 -10 -5 0 -28 -24 -50 -54 l-41 -55 -62 26 c-34 14
-74 31 -89 36 -15 6 -24 15 -22 19 3 4 14 3 24 -2 11 -6 29 -14 40 -20 11 -5
29 -10 40 -10 11 0 20 -4 20 -10 0 -23 75 -2 78 23 1 4 9 21 19 37 16 28 53
42 53 20z m78 -19 c-7 -11 -21 -22 -32 -25 -16 -4 -13 0 9 19 37 30 38 30 23
6z m-1021 3 c-3 -3 -12 -4 -19 -1 -8 3 -5 6 6 6 11 1 17 -2 13 -5z m593 -4 c0
-5 -4 -10 -10 -10 -5 0 -10 5 -10 10 0 6 5 10 10 10 6 0 10 -4 10 -10z m-392
-25 c49 -5 68 -4 86 9 18 12 26 12 29 3 4 -9 7 -9 18 1 18 16 29 15 29 -3 0
-8 7 -15 15 -15 19 0 19 -8 -4 -52 -31 -61 -45 -71 -99 -64 -26 4 -68 8 -94
10 -26 3 -58 13 -72 23 -29 21 -59 80 -50 95 4 6 13 -2 21 -18 10 -22 12 -24
9 -6 -3 17 1 22 16 22 13 0 17 4 12 13 -6 9 -5 9 7 1 8 -7 42 -15 77 -19z
m-295 -12 c-15 -6 -17 -33 -3 -33 17 0 11 -37 -15 -86 -15 -28 -25 -63 -25
-89 0 -22 -6 -49 -12 -58 -12 -15 -16 -15 -40 -3 -15 8 -29 12 -32 8 -3 -3 -6
0 -6 7 0 19 -37 54 -52 49 -7 -3 -18 6 -25 19 -15 30 -1 57 39 74 14 6 29 17
32 25 3 8 16 14 28 14 34 0 71 22 74 44 3 20 21 36 39 35 6 0 4 -3 -2 -6z
m642 -3 c3 -5 -1 -10 -9 -10 -9 0 -16 5 -16 10 0 6 4 10 9 10 6 0 13 -4 16
-10z m95 -17 c0 -20 -24 -11 -28 10 -2 12 1 15 12 11 9 -3 16 -13 16 -21z
m354 -14 c-3 -5 -21 -9 -41 -9 -28 0 -33 3 -24 13 12 15 74 11 65 -4z m46 11
c0 -5 -2 -10 -4 -10 -3 0 -8 5 -11 10 -3 6 -1 10 4 10 6 0 11 -4 11 -10z
m-459 -25 c17 6 24 -3 20 -28 -1 -4 7 -10 16 -14 10 -4 20 -10 23 -13 3 -4 25
-21 49 -39 l44 -31 39 42 c20 23 40 39 43 37 2 -3 -13 -25 -35 -49 -41 -45
-50 -70 -27 -70 7 0 18 -9 25 -20 7 -12 17 -18 22 -15 5 3 7 0 4 -8 -3 -8 -27
-25 -55 -37 -27 -13 -55 -30 -62 -38 -7 -9 6 -6 33 8 25 13 59 26 75 30 26 5
30 10 30 40 0 29 -4 36 -22 38 -13 2 -23 9 -23 17 0 10 9 8 38 -7 64 -33 87
-48 78 -48 -5 0 -3 -7 4 -15 10 -12 6 -13 -24 -8 -30 5 -35 3 -31 -9 4 -9 -1
-18 -10 -22 -9 -3 -13 -11 -10 -17 4 -6 13 -8 19 -6 9 4 12 -5 12 -25 -1 -18
5 -33 13 -36 10 -3 12 1 8 17 -3 11 -1 21 4 21 20 0 7 -40 -18 -59 -16 -12
-21 -18 -12 -15 23 7 53 -34 37 -53 -14 -17 5 -18 32 -1 16 10 22 10 32 -1 11
-12 10 -13 -5 -8 -15 6 -17 3 -12 -15 6 -18 4 -20 -14 -15 -25 6 -26 -4 -7
-42 19 -37 7 -53 -46 -61 -42 -7 -43 -7 -13 -14 59 -15 58 -14 53 -60 -3 -24
-15 -58 -27 -75 -12 -17 -19 -31 -15 -31 3 0 1 -6 -5 -14 -6 -7 -9 -21 -5 -30
3 -9 1 -16 -5 -16 -5 0 -15 -9 -21 -21 -9 -16 -8 -20 2 -18 33 4 41 -1 28 -16
-9 -11 -17 -12 -30 -5 -19 10 -34 -1 -35 -25 -1 -22 -41 -75 -56 -75 -9 0 -30
-15 -47 -34 -17 -19 -40 -37 -51 -41 -12 -3 -21 -13 -21 -22 0 -10 -6 -14 -20
-10 -11 3 -18 1 -15 -3 3 -5 0 -12 -6 -16 -7 -4 -9 -3 -5 4 3 6 1 14 -4 17 -7
5 -5 12 7 20 10 7 15 16 12 19 -11 11 -51 -36 -46 -55 4 -14 0 -19 -14 -19
-10 0 -19 -4 -19 -10 0 -5 -7 -7 -15 -4 -8 4 -15 1 -15 -5 0 -6 6 -11 14 -11
8 0 16 -7 20 -15 3 -8 1 -15 -4 -15 -6 0 -10 5 -10 11 0 6 -8 9 -19 6 -12 -3
-18 1 -17 11 2 23 -33 27 -50 5 -9 -10 -13 -13 -10 -6 5 8 0 8 -19 0 -22 -11
-23 -13 -8 -24 9 -7 20 -10 24 -7 5 3 6 -2 3 -10 -5 -14 -8 -14 -21 0 -12 11
-18 12 -29 3 -8 -6 -11 -15 -8 -20 3 -5 0 -9 -6 -9 -7 0 -9 9 -5 23 5 16 4 18
-3 8 -9 -12 -12 -12 -26 1 -12 13 -22 14 -55 5 -23 -6 -42 -18 -44 -28 -7 -25
-47 -13 -47 13 0 14 -5 18 -17 15 -48 -14 -92 -17 -98 -7 -4 6 10 10 36 10 53
0 44 11 -16 20 -41 6 -45 5 -40 -12 5 -13 1 -18 -14 -18 -12 0 -21 5 -21 11 0
6 -7 9 -15 5 -8 -3 -15 -2 -15 3 0 8 -35 22 -44 18 -3 -1 -15 8 -29 21 -14 14
-38 24 -57 24 -24 1 -31 5 -27 17 3 13 -2 16 -27 13 -22 -3 -40 3 -56 17 l-25
21 26 22 c14 13 39 33 55 44 16 12 26 25 22 29 -5 5 -17 0 -28 -10 -11 -10
-20 -13 -20 -7 0 7 4 12 10 12 5 0 7 7 4 15 -8 19 23 32 45 18 17 -11 54 1 81
26 22 22 25 -4 2 -36 -10 -16 -22 -36 -25 -46 -9 -25 13 -11 46 29 21 25 34
31 68 32 51 2 68 15 49 37 -14 17 -35 21 -25 5 3 -5 1 -10 -4 -10 -6 0 -11 6
-11 14 0 16 16 29 39 33 7 1 19 7 25 13 8 9 6 11 -9 8 -13 -2 -19 2 -17 11 2
8 -3 18 -10 24 -10 6 -8 7 4 3 10 -3 20 -1 23 4 11 17 25 11 18 -7 -6 -15 -4
-16 9 -5 13 10 18 9 29 -5 13 -16 12 -17 -3 -4 -20 15 -24 7 -6 -13 10 -10 17
-8 38 11 13 12 34 23 45 23 29 1 56 25 49 44 -3 9 -10 13 -15 10 -11 -7 -39
20 -39 38 0 11 -2 11 -9 0 -6 -10 -10 -10 -21 3 -7 8 -24 15 -37 15 -29 0 -27
21 3 27 37 7 149 6 181 -1 26 -6 36 -3 50 13 22 26 37 26 77 1 29 -17 35 -18
59 -5 15 8 27 11 27 8 0 -3 6 -1 13 5 7 6 18 7 26 3 10 -6 9 -12 -5 -25 -14
-15 -15 -19 -3 -27 10 -6 10 -9 2 -9 -7 0 -13 -7 -13 -15 0 -8 5 -15 11 -15 5
0 8 -4 5 -8 -2 -4 -1 -13 3 -20 6 -10 18 -8 52 7 40 19 41 21 16 21 -25 0 -27
2 -17 20 9 16 8 20 -5 20 -12 0 -8 7 12 26 15 14 23 23 16 20 -17 -9 -35 28
-21 42 9 9 9 12 -1 12 -7 0 -9 4 -6 10 3 5 2 18 -4 27 -8 14 -4 23 17 41 l27
22 -29 -10 c-16 -6 -30 -9 -33 -7 -6 7 -6 104 1 115 3 6 2 13 -4 17 -7 4 -7
13 0 26 6 11 9 23 6 27 -3 5 -8 58 -11 118 -3 60 -10 124 -16 141 -12 37 -2
66 13 39 6 -11 16 -15 29 -11z m526 -21 c24 5 25 4 10 -5 -21 -12 -67 -4 -67
12 0 8 5 7 15 -1 9 -7 26 -10 42 -6z m-1377 -4 c-20 -13 -33 -13 -25 0 3 6 14
10 23 10 15 0 15 -2 2 -10z m955 0 c-28 -12 -57 -12 -50 0 3 6 21 10 38 9 27
0 29 -2 12 -9z m221 -15 c10 -8 15 -14 9 -14 -5 0 -19 6 -29 14 -11 8 -15 15
-10 15 6 0 19 -7 30 -15z m79 5 c-3 -5 -11 -10 -16 -10 -6 0 -7 5 -4 10 3 6
11 10 16 10 6 0 7 -4 4 -10z m-1303 -27 c-6 -3 -10 -8 -8 -12 3 -4 -4 -12 -15
-19 -18 -12 -19 -11 -7 10 15 27 30 39 38 31 3 -3 -1 -8 -8 -10z m1503 7 c3
-5 1 -10 -4 -10 -6 0 -11 5 -11 10 0 6 2 10 4 10 3 0 8 -4 11 -10z m-200 -11
c4 -6 5 -12 3 -14 -7 -7 -48 7 -48 16 0 13 37 11 45 -2z m85 -139 c0 -17 -14
-11 -28 10 -14 23 -52 26 -82 8 -15 -10 -22 -10 -32 0 -9 9 -7 12 13 12 14 0
34 6 44 14 18 13 18 15 1 42 -11 18 2 8 33 -24 28 -29 51 -57 51 -62z m80 85
c0 -8 -4 -15 -10 -15 -5 0 -7 7 -4 15 4 8 8 15 10 15 2 0 4 -7 4 -15z m-1439
-71 c26 -19 52 -34 58 -34 6 0 11 -4 11 -8 0 -4 13 -16 30 -25 26 -16 28 -21
20 -43 -6 -14 -10 -47 -10 -73 0 -26 -5 -52 -12 -59 -8 -8 -8 -12 -1 -12 24 0
21 -40 -4 -60 -33 -26 -53 -26 -22 0 28 22 14 27 -15 5 -23 -17 -40 -20 -31
-5 3 6 -1 10 -10 10 -9 0 -13 -4 -10 -10 3 -5 -1 -10 -10 -10 -9 0 -14 -4 -11
-9 3 -4 16 -6 29 -4 14 3 29 -2 36 -11 12 -14 10 -23 -10 -62 -17 -32 -29 -44
-41 -40 -10 2 -18 0 -18 -5 0 -5 -7 -9 -16 -9 -8 0 -13 -4 -10 -8 2 -4 -7 -9
-22 -10 -19 -1 -23 1 -13 7 10 7 10 10 1 16 -12 8 -32 -13 -24 -26 2 -4 -4 -9
-14 -13 -9 -3 -34 -12 -55 -20 -32 -12 -39 -12 -44 -1 -2 8 -2 19 2 25 4 6 2
17 -4 24 -8 10 -8 21 -1 42 6 15 10 39 8 52 -3 24 0 25 56 28 32 2 62 6 65 10
3 3 -26 4 -66 2 -47 -2 -69 0 -65 7 4 5 7 17 7 25 0 9 13 17 35 21 l35 5 -30
9 c-45 12 -47 14 -28 46 18 30 28 35 38 20 3 -6 27 -13 53 -16 26 -4 70 -16
99 -27 28 -11 60 -18 70 -15 12 3 9 5 -9 6 -34 1 -47 21 -19 28 17 4 19 8 10
19 -6 8 -23 14 -36 14 -50 0 -178 43 -203 69 -19 19 -20 23 -6 18 23 -9 57 18
49 39 -3 8 0 14 6 14 6 0 11 9 11 20 0 11 11 27 25 36 14 9 25 22 25 29 0 20
39 7 91 -31z m542 -181 c-1 -114 2 -133 21 -133 6 0 11 -18 12 -45 1 -39 -2
-45 -20 -45 -12 0 -27 4 -35 9 -12 8 -12 13 3 36 10 15 14 31 9 35 -14 14 -93
17 -93 3 0 -6 5 -15 10 -18 15 -9 12 -42 -3 -48 -26 -10 -38 9 -35 54 2 35 7
44 21 43 10 -1 16 0 13 3 -3 3 1 15 9 27 9 11 15 43 15 73 0 29 4 62 9 75 5
13 12 36 16 52 l6 29 22 -21 c19 -19 21 -32 20 -129z m867 138 c0 -5 -7 -11
-14 -14 -10 -4 -13 -1 -9 9 6 15 23 19 23 5z m-187 -54 c5 -14 3 -18 -11 -15
-10 2 -18 14 -20 32 -3 25 -2 27 10 15 8 -8 17 -22 21 -32z m-1423 18 c-7 -9
-15 -13 -19 -10 -3 3 1 10 9 15 21 14 24 12 10 -5z m1570 3 c0 -5 -8 -8 -19
-8 -21 0 -45 -23 -34 -33 3 -4 -4 -7 -17 -7 -22 0 -23 1 -5 20 10 11 15 20 11
20 -4 0 -5 4 -2 9 7 10 66 9 66 -1z m-112 -67 c-13 -21 -38 -17 -38 5 0 8 10
14 25 14 22 0 24 -2 13 -19z m-885 -37 c-11 -28 -30 -15 -25 18 4 28 6 30 18
14 7 -10 10 -24 7 -32z m1034 11 c0 -10 -10 -15 -29 -15 -46 0 -32 24 18 29 6
0 11 -6 11 -14z m-718 -56 c-20 -12 -31 1 -14 17 8 9 16 23 16 32 1 9 4 4 6
-12 3 -17 -1 -32 -8 -37z m673 11 c13 0 33 -7 44 -15 10 -8 26 -15 35 -15 9 0
22 -7 29 -15 14 -17 5 -50 -11 -39 -8 5 -8 8 0 13 23 14 -53 45 -111 45 -55 0
-70 7 -48 21 6 4 7 11 4 17 -4 6 1 6 14 -1 11 -6 31 -11 44 -11z m-32 -145
c38 -1 80 -20 80 -36 0 -6 -10 -3 -22 5 -30 21 -78 21 -78 0 0 -8 -5 -12 -10
-9 -6 4 -8 11 -5 16 4 5 0 9 -7 9 -8 0 -23 7 -34 16 -18 15 -17 15 11 8 17 -4
46 -8 65 -9z m-489 -32 c12 -15 12 -16 -4 -10 -10 4 -23 7 -28 7 -6 0 -7 5 -4
10 9 15 21 12 36 -7z m643 4 c-2 -7 -14 -13 -25 -13 -19 0 -19 1 -3 13 10 7
21 13 26 13 4 0 5 -6 2 -13z m-83 -36 c24 9 32 9 42 -1 10 -10 8 -12 -6 -7 -9
4 -28 1 -42 -5 -30 -14 -34 -48 -6 -48 11 0 22 -4 26 -10 3 -5 -7 -8 -25 -5
-16 2 -30 0 -30 -4 0 -4 -7 -16 -15 -27 -15 -18 -15 -18 -13 11 2 20 -1 29 -9
28 -7 -2 -13 2 -13 7 0 6 6 10 14 10 22 0 28 17 16 41 -11 19 -10 20 10 9 17
-9 29 -9 51 1z m-1834 -63 c-3 -8 -6 -5 -6 6 -1 11 2 17 5 13 3 -3 4 -12 1
-19z m469 -29 c10 -17 -12 -32 -45 -31 -17 0 -32 -5 -35 -14 -4 -9 -19 -13
-46 -12 -22 1 -46 -4 -52 -10 -7 -7 -17 -7 -34 0 -52 24 -13 48 78 48 22 0 37
4 33 9 -3 5 5 12 17 14 44 8 77 7 84 -4z m1244 2 c0 -5 -11 -11 -24 -13 -17
-4 -23 -1 -19 9 6 14 43 18 43 4z m47 -67 c-3 -17 0 -28 11 -31 12 -5 11 -8
-7 -14 -13 -5 -24 -20 -27 -39 -9 -42 -25 -49 -18 -8 7 39 35 118 42 118 2 0
2 -12 -1 -26z m-1497 -35 c0 -18 -18 -9 -23 12 -4 16 -3 18 9 8 8 -6 14 -15
14 -20z m241 10 c10 -20 9 -21 -11 -16 -12 3 -19 3 -16 0 3 -4 -4 -17 -16 -30
l-23 -24 49 20 c26 12 51 19 56 16 19 -12 -5 -44 -58 -76 -31 -19 -65 -42 -74
-51 -24 -24 -37 -23 -60 7 -11 14 -26 25 -33 25 -8 0 -17 9 -20 20 -3 11 -12
20 -20 20 -16 0 -23 18 -17 42 4 16 38 34 55 30 4 -1 7 2 7 7 0 15 59 24 74
12 7 -6 15 -8 18 -5 3 2 18 7 34 10 16 3 31 7 33 10 7 7 10 5 22 -17z m1345 6
c-16 -9 -34 -14 -40 -11 -6 2 0 8 14 14 39 16 59 14 26 -3z m-1172 -20 c-4 -8
-11 -15 -16 -15 -6 0 -5 6 2 15 7 8 14 15 16 15 2 0 1 -7 -2 -15z m936 -17 c0
-5 -4 -8 -10 -8 -5 0 -10 10 -10 23 0 18 2 19 10 7 5 -8 10 -18 10 -22z m-945
-26 c-3 -3 -11 0 -18 7 -9 10 -8 11 6 5 10 -3 15 -9 12 -12z m1182 -24 c-3 -8
-6 -5 -6 6 -1 11 2 17 5 13 3 -3 4 -12 1 -19z m-237 -19 c0 -11 -4 -18 -10
-14 -5 3 -7 12 -3 20 7 21 13 19 13 -6z m-70 -33 c0 -3 -4 -8 -10 -11 -5 -3
-10 -1 -10 4 0 6 5 11 10 11 6 0 10 -2 10 -4z m-1569 -49 c-10 -9 -11 -8 -5 6
3 10 9 15 12 12 3 -3 0 -11 -7 -18z m1906 -9 c-3 -7 -5 -2 -5 12 0 14 2 19 5
13 2 -7 2 -19 0 -25z m-1417 18 c0 -12 -33 -35 -42 -30 -6 4 -1 12 13 20 27
15 29 16 29 10z m1200 -26 c14 -4 18 -9 10 -9 -12 -1 -11 -5 4 -16 17 -13 17
-15 3 -15 -9 0 -29 11 -44 25 -29 25 -20 30 27 15z m200 6 c0 -2 -7 -7 -16
-10 -8 -3 -12 -2 -9 4 6 10 25 14 25 6z m-402 -26 c-12 -19 -38 -28 -38 -12 0
6 13 14 48 31 1 0 -3 -8 -10 -19z m-1057 -7 c13 -16 12 -17 -3 -4 -17 13 -22
21 -14 21 2 0 10 -8 17 -17z m-424 -25 c-3 -7 -5 -2 -5 12 0 14 2 19 5 13 2
-7 2 -19 0 -25z m1818 22 c-3 -5 -12 -10 -18 -10 -7 0 -6 4 3 10 19 12 23 12
15 0z m-140 -20 c3 -5 1 -10 -4 -10 -6 0 -11 5 -11 10 0 6 2 10 4 10 3 0 8 -4
11 -10z m267 -17 c-3 -16 -7 -22 -10 -15 -4 13 4 42 11 42 2 0 2 -12 -1 -27z
m-512 -7 c0 -21 -21 -31 -30 -15 -5 7 -6 17 -4 21 9 14 34 9 34 -6z m-875 -56
c3 -5 -1 -10 -10 -10 -9 0 -13 5 -10 10 3 6 8 10 10 10 2 0 7 -4 10 -10z m918
-9 c3 -13 1 -18 -9 -14 -7 2 -10 11 -7 19 7 19 10 18 16 -5z m357 3 c0 -8 -19
-13 -24 -6 -3 5 1 9 9 9 8 0 15 -2 15 -3z m-545 -54 c-3 -5 -11 -10 -16 -10
-6 0 -7 5 -4 10 3 6 11 10 16 10 6 0 7 -4 4 -10z m62 -22 c-3 -8 -6 -5 -6 6
-1 11 2 17 5 13 3 -3 4 -12 1 -19z m-469 -6 c2 -7 -3 -12 -12 -12 -9 0 -16 7
-16 16 0 17 22 14 28 -4z m145 1 c-6 -17 -37 -17 -51 0 -8 9 -2 12 23 13 23 0
32 -3 28 -13z m242 -32 c22 -5 31 -9 20 -10 -19 -1 -19 -1 0 -14 11 -8 44 -22
73 -32 28 -11 52 -22 52 -26 0 -11 -66 7 -102 28 -18 11 -55 26 -83 33 -75 18
-77 19 -69 31 4 7 19 8 38 5 17 -4 49 -11 71 -15z m258 -36 c-3 -9 -8 -14 -10
-11 -3 3 -2 9 2 15 9 16 15 13 8 -4z m-1476 -27 c-3 -8 -6 -5 -6 6 -1 11 2 17
5 13 3 -3 4 -12 1 -19z m1045 -17 c2 -17 1 -28 -4 -25 -8 5 -12 54 -4 54 2 0
6 -13 8 -29z m100 4 c3 -13 1 -22 -3 -19 -9 5 -13 44 -5 44 2 0 6 -11 8 -25z
m323 5 c3 -5 1 -10 -4 -10 -6 0 -11 5 -11 10 0 6 2 10 4 10 3 0 8 -4 11 -10z
m-20 -50 c3 -6 -4 -10 -17 -10 -18 0 -20 2 -8 10 19 12 18 12 25 0z m206 -13
c-10 -9 -11 -8 -5 6 3 10 9 15 12 12 3 -3 0 -11 -7 -18z m114 14 c3 -5 1 -12
-5 -16 -5 -3 -10 1 -10 9 0 18 6 21 15 7z m-1727 -36 c-3 -3 -9 2 -12 12 -6
14 -5 15 5 6 7 -7 10 -15 7 -18z m1075 6 c3 -13 1 -18 -9 -14 -7 2 -10 11 -7
19 7 19 10 18 16 -5z m180 -50 c18 -11 43 -34 55 -51 13 -17 34 -36 48 -42 13
-6 24 -18 24 -27 -1 -14 -2 -13 -11 1 -5 10 -17 18 -24 18 -16 0 -55 35 -55
48 0 26 -94 76 -132 71 -23 -3 -38 1 -38 10 0 14 99 -7 133 -28z m397 19 c0
-5 -5 -10 -11 -10 -5 0 -7 5 -4 10 3 6 8 10 11 10 2 0 4 -4 4 -10z m124 -6 c5
-14 4 -15 -9 -4 -17 14 -19 20 -6 20 5 0 12 -7 15 -16z m-561 -81 c-6 -14 -8
-14 -14 3 -12 30 -10 37 5 24 8 -6 12 -19 9 -27z m218 14 c-10 -9 -11 -8 -5 6
3 10 9 15 12 12 3 -3 0 -11 -7 -18z m230 -15 c-5 -10 -20 -18 -32 -19 -21 -2
-20 0 7 17 37 23 37 23 25 2z m-584 -24 c-3 -7 -5 -2 -5 12 0 14 2 19 5 13 2
-7 2 -19 0 -25z m183 7 c10 -13 9 -15 -9 -15 -12 0 -21 6 -21 15 0 8 4 15 9
15 5 0 14 -7 21 -15z m-1190 -30 c0 -5 -5 -3 -10 5 -5 8 -10 20 -10 25 0 6 5
3 10 -5 5 -8 10 -19 10 -25z"/>
<path d="M1570 1200 c-13 -9 -13 -10 0 -10 8 0 22 5 30 10 13 9 13 10 0 10 -8
0 -22 -5 -30 -10z"/>
<path d="M1070 922 c0 -4 4 -13 8 -20 10 -16 43 -5 36 12 -5 12 -44 20 -44 8z"/>
<path d="M1037 901 c-3 -14 1 -24 13 -31 36 -19 41 -6 12 31 l-19 22 -6 -22z"/>
<path d="M1270 770 c-13 -8 -12 -10 3 -10 9 0 17 5 17 10 0 12 -1 12 -20 0z"/>
<path d="M842 685 c2 -11 11 -20 20 -20 24 0 33 -14 14 -21 -10 -4 -16 -17
-16 -38 l1 -31 13 30 c7 17 20 36 29 44 10 7 17 20 17 28 0 13 -3 13 -15 3
-12 -10 -15 -9 -15 5 0 13 -3 15 -13 6 -10 -8 -17 -7 -26 2 -10 10 -12 8 -9
-8z"/>
<path d="M937 683 c-7 -11 -21 -89 -15 -83 17 16 35 68 29 79 -5 7 -11 9 -14
4z"/>
<path d="M978 675 c-2 -3 -2 -19 0 -36 l5 -32 12 29 c7 16 10 32 8 37 -5 8
-17 9 -25 2z"/>
<path d="M747 633 c3 -7 9 -10 14 -7 14 8 11 21 -5 21 -8 0 -12 -6 -9 -14z"/>
<path d="M794 628 c-3 -4 2 -8 10 -8 8 0 17 4 20 8 3 5 -2 9 -10 9 -8 0 -17
-4 -20 -9z"/>
<path d="M720 601 c0 -5 5 -13 10 -16 6 -3 10 -2 10 4 0 5 -4 13 -10 16 -5 3
-10 2 -10 -4z"/>
<path d="M360 1340 c-15 -28 -12 -37 5 -14 14 18 16 18 29 2 18 -24 29 -23 17
1 -15 28 -39 33 -51 11z"/>
<path d="M518 1108 c9 -9 15 -9 24 0 9 9 7 12 -12 12 -19 0 -21 -3 -12 -12z"/>
<path d="M380 683 c0 -7 10 -18 22 -24 17 -9 24 -9 33 5 7 9 17 16 24 16 6 0
11 5 11 10 0 6 -20 9 -45 8 -27 -2 -45 -8 -45 -15z"/>
</g>
</svg>
