<?xml version="1.0" standalone="no"?>
<!DOCTYPE svg PUBLIC "-//W3C//DTD SVG 20010904//EN"
 "http://www.w3.org/TR/2001/REC-SVG-20010904/DTD/svg10.dtd">
<svg version="1.0" xmlns="http://www.w3.org/2000/svg"
 width="400.000000pt" height="400.000000pt" viewBox="0 0 400.000000 400.000000"
 preserveAspectRatio="xMidYMid meet">
<metadata>
Created by potrace 1.11, written by Peter Selinger 2001-2013
</metadata>
<g transform="translate(0.000000,400.000000) scale(0.100000,-0.100000)"
fill="#000000" stroke="none">
<path d="M1690 3989 c-320 -51 -632 -183 -894 -377 -180 -134 -398 -372 -511
-557 -95 -157 -200 -410 -244 -590 -43 -175 -57 -588 -27 -786 29 -186 89
-376 176 -554 109 -224 213 -370 389 -546 244 -243 504 -400 831 -503 192 -61
312 -76 590 -76 280 0 402 16 605 80 104 33 147 50 260 104 221 105 377 217
560 400 186 187 316 376 419 611 41 95 91 235 100 281 2 11 9 39 16 62 41 155
56 585 26 783 -29 192 -80 354 -170 544 -103 217 -219 380 -396 556 -231 231
-486 389 -789 488 -239 78 -333 91 -645 90 -133 -1 -266 -5 -296 -10z m635
-29 c127 -22 245 -52 298 -74 21 -8 40 -15 42 -15 12 1 115 -41 190 -77 196
-92 362 -210 533 -378 238 -233 396 -483 502 -796 17 -50 48 -169 55 -210 3
-19 13 -73 21 -120 24 -130 22 -461 -5 -612 -75 -430 -243 -758 -545 -1066
-309 -315 -654 -496 -1094 -573 -166 -29 -478 -29 -644 0 -437 76 -785 258
-1089 568 -176 179 -292 342 -384 538 -35 75 -76 178 -76 190 0 2 -7 21 -15
42 -22 53 -52 171 -74 298 -16 86 -20 157 -20 323 0 239 16 367 70 547 17 55
32 105 33 110 38 137 169 381 297 550 82 109 286 311 392 389 258 189 537 309
853 366 149 27 510 27 660 0z"/>
<path d="M815 3304 c-53 -19 -92 -58 -121 -119 l-24 -50 0 -857 0 -858 1268 0
c1204 0 1269 1 1307 19 47 21 111 89 122 128 5 16 8 382 8 814 l0 786 -30 49
c-23 36 -44 55 -85 76 l-55 28 -1175 -1 c-1002 0 -1181 -3 -1215 -15z m303
-223 c11 -6 33 -26 51 -46 27 -32 31 -43 31 -96 0 -55 -3 -63 -38 -101 -97
-103 -262 -39 -262 102 0 51 21 92 62 124 46 34 111 41 156 17z m561 -5 c85
-44 107 -162 44 -237 -32 -37 -64 -51 -121 -51 -110 0 -183 118 -136 217 20
43 44 64 91 80 44 15 80 12 122 -9z m651 -216 l0 -170 140 0 140 0 0 -85 0
-85 -140 0 -140 0 0 -292 c0 -172 4 -308 11 -330 16 -58 52 -72 164 -65 l90 6
3 -79 3 -79 -48 -14 c-26 -8 -77 -15 -112 -16 -36 -1 -68 -4 -71 -6 -12 -8
-142 15 -170 30 -48 25 -101 84 -129 144 l-26 56 -3 323 -3 322 -65 0 -64 0 0
80 0 79 67 3 68 3 16 50 c16 46 37 122 69 248 l13 47 93 0 94 0 0 -170z
m-1135 -678 l0 -524 -145 0 -145 -1 -2 514 c-2 283 -1 520 2 527 3 10 39 12
147 10 l143 -3 0 -523z m555 1 l0 -528 -145 0 -145 0 0 528 0 527 145 0 145 0
0 -527z m1459 313 c30 -32 38 -94 17 -135 -14 -26 -20 -30 -36 -21 -16 8 -17
15 -10 42 24 82 -23 105 -66 33 -45 -78 -94 -96 -139 -50 -18 17 -25 35 -25
64 0 54 8 71 35 71 22 0 23 -2 12 -35 -9 -29 -8 -39 4 -51 19 -18 46 -9 55 18
3 10 19 35 36 54 37 42 83 46 117 10z m21 -236 l0 -29 -87 -3 -88 -3 53 -33
c28 -19 52 -39 52 -46 0 -7 -24 -28 -52 -47 l-53 -34 88 -3 87 -3 0 -29 0 -30
-140 0 -140 0 0 29 c0 26 9 36 66 72 l66 43 -24 18 c-13 10 -42 30 -65 44 -35
21 -43 31 -43 55 l0 29 140 0 140 0 0 -30z m0 -350 l0 -30 -87 0 -88 0 49 -32
c27 -18 51 -38 53 -45 2 -6 -22 -30 -53 -52 l-57 -41 91 0 92 0 0 -30 0 -30
-141 0 -140 0 3 32 c2 27 14 40 67 77 71 49 72 42 -18 96 -41 24 -51 35 -51
58 l0 27 140 0 140 0 0 -30z"/>
<path d="M670 1070 c0 -64 3 -80 15 -80 12 0 15 16 15 80 0 64 -3 80 -15 80
-12 0 -15 -16 -15 -80z"/>
<path d="M750 1135 c-18 -22 -5 -58 30 -77 16 -9 30 -25 30 -34 0 -13 -7 -16
-35 -11 -26 4 -35 2 -35 -9 0 -10 12 -14 44 -14 36 0 46 4 51 20 10 30 -2 53
-35 72 -16 9 -30 25 -30 34 0 13 7 16 34 11 28 -4 34 -3 29 9 -7 19 -67 18
-83 -1z"/>
<path d="M860 1141 c0 -5 10 -11 23 -13 20 -3 22 -9 25 -70 2 -52 6 -68 17
-68 12 0 15 15 15 70 0 63 2 70 19 70 11 0 23 5 26 10 4 6 -18 10 -59 10 -36
0 -66 -4 -66 -9z"/>
<path d="M1020 1071 c0 -66 3 -81 15 -81 13 0 15 13 13 77 -2 50 -7 78 -15 81
-10 3 -13 -17 -13 -77z"/>
<path d="M1070 1140 c0 -5 11 -10 25 -10 24 0 25 -2 25 -75 0 -62 2 -73 15
-69 11 5 15 23 15 75 0 62 2 69 19 69 11 0 23 5 26 10 4 6 -18 10 -59 10 -37
0 -66 -4 -66 -10z"/>
<path d="M1223 1134 c-9 -25 5 -126 19 -135 7 -5 32 -9 55 -9 53 0 63 16 63
99 0 47 -3 61 -15 61 -11 0 -15 -16 -17 -67 -3 -64 -5 -68 -27 -71 -35 -5 -51
22 -51 85 0 51 -14 71 -27 37z"/>
<path d="M1390 1140 c0 -5 11 -10 25 -10 24 0 25 -2 25 -70 0 -56 3 -70 15
-70 12 0 15 14 15 70 0 63 2 70 20 70 11 0 20 5 20 10 0 6 -27 10 -60 10 -33
0 -60 -4 -60 -10z"/>
<path d="M1550 1130 c-11 -11 -20 -23 -21 -27 0 -5 -2 -20 -4 -35 -6 -45 28
-78 80 -78 35 0 48 5 64 26 28 36 27 79 -4 109 -31 32 -86 34 -115 5z m99 -32
c23 -40 6 -82 -35 -86 -59 -6 -86 56 -43 99 26 26 59 21 78 -13z"/>
<path d="M1790 1070 c0 -64 3 -80 15 -80 12 0 15 16 15 80 0 64 -3 80 -15 80
-12 0 -15 -16 -15 -80z"/>
<path d="M1845 1140 c-4 -6 5 -10 19 -10 25 0 26 -2 26 -70 0 -56 3 -70 15
-70 12 0 15 14 15 70 0 68 1 70 25 70 14 0 25 5 25 10 0 6 -26 10 -59 10 -33
0 -63 -4 -66 -10z"/>
<path d="M2022 1133 c-46 -92 -63 -179 -26 -128 19 25 72 28 80 3 3 -10 12
-18 21 -18 8 0 13 3 11 8 -1 4 -16 40 -31 80 -30 74 -40 85 -55 55z m32 -74
c-7 -12 -34 -11 -34 0 0 5 3 17 7 27 6 16 7 16 19 -1 7 -10 11 -22 8 -26z"/>
<path d="M2140 1070 l0 -80 46 0 c27 0 43 4 39 10 -3 6 -17 10 -31 10 -23 0
-24 2 -24 70 0 56 -3 70 -15 70 -12 0 -15 -16 -15 -80z"/>
<path d="M2250 1070 c0 -64 3 -80 15 -80 12 0 15 16 15 80 0 64 -3 80 -15 80
-12 0 -15 -16 -15 -80z"/>
<path d="M2342 1073 c-17 -46 -25 -80 -19 -82 5 -2 14 4 19 13 10 17 78 23 78
6 0 -5 9 -14 20 -20 20 -11 20 -10 -1 42 -12 29 -26 68 -33 86 -6 17 -16 32
-23 32 -6 0 -25 -35 -41 -77z m55 -19 c-3 -4 -13 -4 -22 0 -13 5 -14 10 -4 28
l12 23 10 -23 c6 -12 7 -25 4 -28z"/>
<path d="M2490 1070 c0 -91 17 -109 22 -22 l3 57 43 -57 c60 -81 72 -77 72 22
0 63 -3 80 -14 80 -11 0 -16 -15 -18 -51 l-3 -51 -40 50 c-56 72 -65 68 -65
-28z"/>
<path d="M2696 1129 c-20 -16 -26 -29 -26 -60 0 -52 27 -79 80 -79 53 0 80 27
80 79 0 46 -35 81 -80 81 -15 0 -39 -9 -54 -21z m97 -30 c17 -24 18 -30 6 -55
-19 -39 -70 -46 -93 -12 -21 30 -20 40 5 72 26 33 55 31 82 -5z"/>
<path d="M670 766 l0 -86 29 0 c66 0 111 34 111 85 0 50 -26 74 -87 82 l-53 6
0 -87z m98 42 c7 -7 12 -26 12 -43 0 -38 -16 -55 -52 -55 -27 0 -28 1 -28 55
0 54 1 55 28 55 15 0 33 -5 40 -12z"/>
<path d="M848 843 c-2 -5 -3 -17 -2 -28 0 -11 2 -46 3 -77 2 -93 21 -68 21 27
0 47 -4 85 -9 85 -6 0 -11 -3 -13 -7z"/>
<path d="M950 835 c0 -9 9 -15 25 -15 24 0 25 -2 25 -70 0 -56 3 -70 15 -70
12 0 15 14 15 70 0 68 1 70 25 70 16 0 25 6 25 15 0 12 -14 15 -65 15 -51 0
-65 -3 -65 -15z"/>
<path d="M1110 765 l0 -85 40 0 c29 0 40 4 40 15 0 10 -10 15 -31 15 -26 0
-30 3 -27 23 2 16 10 22 27 22 14 0 26 6 29 13 2 8 -7 12 -27 12 -24 0 -31 4
-31 20 0 16 7 20 30 20 20 0 30 5 30 15 0 11 -11 15 -40 15 l-40 0 0 -85z"/>
<path d="M1273 840 c-51 -21 -58 -108 -11 -143 20 -15 35 -18 62 -13 20 4 36
12 36 18 0 6 -10 8 -26 4 -40 -10 -74 17 -74 58 0 42 20 60 65 58 36 -1 47 11
19 22 -21 8 -44 7 -71 -4z"/>
<path d="M1390 765 c0 -68 3 -85 15 -85 10 0 15 15 17 57 l3 57 44 -57 c61
-80 71 -76 71 28 0 69 -3 85 -15 85 -12 0 -15 -13 -15 -57 -1 -65 5 -67 -64
20 -47 58 -56 50 -56 -48z"/>
<path d="M1601 824 c-50 -42 -40 -109 18 -134 62 -25 111 8 111 73 0 51 -7 63
-43 76 -41 16 -52 14 -86 -15z m97 -58 c3 -42 1 -47 -23 -56 -48 -18 -84 21
-71 76 7 28 42 45 71 34 15 -5 21 -18 23 -54z"/>
<path d="M1770 765 l0 -85 45 0 c33 0 45 4 45 15 0 10 -10 15 -30 15 l-30 0 0
70 c0 56 -3 70 -15 70 -12 0 -15 -16 -15 -85z"/>
<path d="M1930 843 c-35 -13 -50 -37 -50 -78 0 -53 26 -80 80 -80 68 0 105 58
75 116 -21 39 -64 57 -105 42z m58 -29 c51 -36 7 -134 -47 -104 -45 23 -47 84
-4 109 24 14 25 14 51 -5z"/>
<path d="M2130 843 c-109 -40 -53 -192 57 -156 22 7 29 17 31 41 2 24 -1 32
-12 32 -10 0 -16 -9 -16 -24 0 -31 -14 -40 -46 -32 -47 12 -55 98 -11 112 12
4 34 7 50 6 29 -2 37 12 11 22 -18 7 -43 7 -64 -1z"/>
<path d="M2250 765 c0 -69 3 -85 15 -85 12 0 15 16 15 85 0 69 -3 85 -15 85
-12 0 -15 -16 -15 -85z"/>
<path d="M2342 768 c-33 -83 -34 -111 -4 -70 10 12 30 25 45 27 22 5 29 1 37
-20 5 -14 16 -25 24 -25 13 0 13 5 2 38 -26 71 -55 132 -64 132 -4 0 -23 -37
-40 -82z m57 -10 c1 -5 -6 -8 -14 -8 -15 0 -21 31 -8 44 7 6 20 -17 22 -36z"/>
</g>
</svg>
